<svg xmlns="http://www.w3.org/2000/svg" width="805" height="600"><rect width="805" height="600" x="0" y="0" fill="#FFFFFF" id="backgorund"/><g id="viz" transform="translate(402.5,300)"><g id="cells"><path d="M-167.43157806499164,-290L-167.43157806499153,-169.578530001937L-72.02113682324628,-155.222001252851L-12.035585921458932,-200.28208210494245z" fill="#1f77b4" stroke="#FFFFFF" stroke-width="2" id="11/3/2022"/><path d="M-105.55313146625784,24.994950032786384L-167.43157806499156,37.07942316797798L-167.43157806499153,247.11074479279057L-129.23363112885457,267.94640505393033L32.42512971791735,174.61267596218522L19.408841655327162,89.42374287497496z" fill="#ff7f0e" stroke="#FFFFFF" stroke-width="2" id="12/3/2022"/><path d="M-105.55313146625784,24.994950032786384L19.408841655327162,89.42374287497496L81.50521166318471,70.24649254955123L141.89366636726726,-111.41098685988864L-12.035585921458875,-200.2820821049425L-72.02113682324628,-155.222001252851z" fill="#2ca02c" stroke="#FFFFFF" stroke-width="2" id="13/3/2022"/><path d="M32.42512971791735,174.61267596218522L127.22857045922734,119.87788393008714L81.50521166318471,70.24649254955123L19.408841655327162,89.42374287497496z" fill="#d62728" stroke="#FFFFFF" stroke-width="2" id="14/3/2022"/><path d="M-167.43157806499153,37.07942316797798L-105.55313146625784,24.994950032786384L-72.02113682324628,-155.222001252851L-167.4315780649916,-169.578530001937z" fill="#9467bd" stroke="#FFFFFF" stroke-width="2" id="15/3/2022"/><path d="M-129.23363112885457,267.94640505393033L-167.43157806499147,247.11074479279057L-167.43157806499147,290z" fill="#8c564b" stroke="#FFFFFF" stroke-width="2" id="16/3/2022"/><path d="M334.86315612998294,-2.842170943040401e-14L141.89366636726726,-111.41098685988862L81.50521166318471,70.24649254955123L127.2285704592274,119.87788393008714z" fill="#e377c2" stroke="#FFFFFF" stroke-width="2" id="17/3/2022"/><path d="M-167.43157806499164,-290L-167.43157806499147,290L334.86315612998294,-2.842170943040401e-14z" fill="none" stroke="#FFFFFF" stroke-width="4"/></g><g id="labels"><text text-anchor="middle" dominant-baseline="text-before-edge" transform="translate(-107.03467310548066,-215.66610491103208)"><tspan x="3" y="0.2em" style="font-family: Arial, sans-serif; font-size: 10px; fill: black; font-weight: bold;">11/3/2022</tspan></text><text text-anchor="middle" dominant-baseline="text-before-edge" transform="translate(-84.89940488414906,135.04764264965553)"><tspan x="3" y="0.2em" style="font-family: Arial, sans-serif; font-size: 10px; fill: black; font-weight: bold;">12/3/2022</tspan></text><text text-anchor="middle" dominant-baseline="text-before-edge" transform="translate(13.317958590780401,-55.44848483001878)"><tspan x="3" y="0.2em" style="font-family: Arial, sans-serif; font-size: 10px; fill: black; font-weight: bold;">13/3/2022</tspan></text><text text-anchor="middle" dominant-baseline="text-before-edge" transform="translate(65.07222520567629,112.1330002457297)"><tspan x="3" y="0.2em" style="font-family: Arial, sans-serif; font-size: 10px; fill: black; font-weight: bold;">14/3/2022</tspan></text><text text-anchor="middle" dominant-baseline="text-before-edge" transform="translate(-127.20844901689362,-81.59547440833892)"><tspan x="3" y="0.2em" style="font-family: Arial, sans-serif; font-size: 10px; fill: black; font-weight: bold;">15/3/2022</tspan></text><text text-anchor="middle" dominant-baseline="text-before-edge" transform="translate(-154.22031570322665,262.1334388204826)"><tspan x="3" y="0.2em" style="font-family: Arial, sans-serif; font-size: 10px; fill: black; font-weight: bold;">16/3/2022</tspan></text><text text-anchor="middle" dominant-baseline="text-before-edge" transform="translate(185.01965715680336,1.6303664244234222)"><tspan x="3" y="0.2em" style="font-family: Arial, sans-serif; font-size: 10px; fill: black; font-weight: bold;">17/3/2022</tspan></text></g></g></svg>